<svg xmlns="http://www.w3.org/2000/svg" version="1.0" width="1600.000000pt" height="1690.000000pt" viewBox="0 0 1600.000000 1690.000000" preserveAspectRatio="xMidYMid meet">
<metadata>
Created by potrace 1.16, written by Peter Selinger 2001-2019
</metadata>
<g transform="translate(0.000000,1690.000000) scale(0.100000,-0.100000)" fill="#000000" stroke="none">
<path d="M4565 12196 c-22 -7 -59 -19 -83 -25 l-43 -12 25 -20 c25 -20 34 -39 18 -39 -4 0 -20 12 -35 26 l-28 25 -82 -27 c-252 -82 -612 -260 -775 -382 l-33 -25 -43 21 c-157 79 -313 80 -463 5 -114 -58 -205 -166 -243 -291 -38 -123 -21 -288 42 -389 l20 -33 -72 -112 c-79 -125 -189 -337 -243 -468 -81 -196 -187 -545 -187 -616 l0 -31 93 -6 c50 -4 101 -9 113 -12 20 -6 23 2 48 100 78 312 207 622 363 876 l66 106 62 -23 c270 -98 570 60 641 337 22 84 15 222 -15 299 -11 30 -21 55 -21 56 0 10 260 165 319 190 l34 14 -23 25 c-16 17 -21 31 -16 49 9 37 37 35 30 -1 -3 -16 1 -36 8 -46 12 -16 17 -15 83 17 39 19 66 35 60 35 -5 0 -17 -3 -24 -8 -21 -14 -50 5 -66 42 -11 27 -11 36 3 59 14 24 54 42 67 30 3 -3 5 -23 5 -44 0 -27 -4 -38 -15 -38 -10 0 -15 10 -15 33 -1 30 -1 31 -15 13 -19 -25 -19 -41 0 -59 8 -8 11 -18 7 -22 -19 -19 56 11 78 32 13 12 28 23 32 23 16 0 7 -19 -18 -39 -35 -27 -28 -27 58 8 95 37 271 94 378 121 47 12 86 23 88 25 2 1 -2 51 -9 109 l-12 106 -61 0 c-33 -1 -79 -7 -101 -14z"/>
<path d="M6627 12123 c-4 -49 -9 -97 -12 -108 -5 -18 3 -22 77 -39 205 -46 497 -150 693 -248 108 -54 311 -173 320 -188 3 -5 -3 -35 -14 -68 -92 -271 59 -558 333 -637 80 -23 228 -16 306 14 64 25 52 34 135 -100 149 -240 298 -603 365 -888 l13 -53 46 6 c25 3 79 9 119 12 42 4 72 11 72 18 -1 53 -110 406 -176 569 -78 191 -230 477 -312 585 l-25 32 32 69 c40 87 55 168 46 255 -16 167 -111 312 -256 390 -136 75 -337 75 -467 0 l-42 -25 -128 79 c-177 110 -164 104 -203 85 -47 -24 -161 -23 -218 0 -81 33 -153 105 -175 174 -6 19 -4 22 11 17 15 -5 16 -4 3 5 -18 14 -227 82 -334 110 -44 12 -108 21 -141 21 l-62 0 -6 -87z"/>
<path d="M5540 9923 c-231 -36 -437 -136 -601 -291 -72 -67 -155 -173 -183 -232 -15 -33 -15 -34 0 -12 l17 23 33 -61 c62 -116 68 -216 20 -320 -23 -50 -71 -110 -88 -110 -11 0 0 46 24 95 40 84 34 209 -14 277 -13 18 -17 36 -13 50 l7 23 -17 -22 c-8 -13 -23 -39 -31 -59 -14 -33 -14 -38 -1 -46 21 -11 41 -101 33 -150 -9 -52 -37 -106 -75 -142 l-31 -30 -1 30 c-1 20 -4 13 -10 -21 -13 -71 6 -256 36 -362 43 -150 131 -313 223 -415 l35 -39 26 23 26 23 -23 -27 -24 -26 44 -40 c88 -80 144 -119 246 -171 429 -216 950 -122 1277 231 70 76 149 193 140 208 -3 6 -2 9 4 8 16 -4 85 153 111 252 31 123 38 317 15 446 -71 400 -344 714 -730 843 -49 16 -125 34 -168 40 -74 10 -253 13 -307 4z"/>
<path d="M7753 9245 c-127 -35 -229 -114 -278 -212 -24 -48 -29 -74 -33 -148 -5 -124 18 -187 102 -271 66 -65 124 -99 293 -169 123 -51 194 -101 231 -163 23 -40 27 -58 27 -122 0 -83 -14 -117 -67 -171 -53 -52 -110 -72 -219 -77 -106 -5 -210 17 -303 64 -27 13 -50 23 -52 21 -2 -2 -14 -36 -26 -77 -21 -71 -22 -73 -3 -87 11 -7 54 -24 96 -38 363 -114 695 10 759 284 17 70 8 193 -18 251 -52 119 -131 181 -348 276 -156 67 -216 106 -254 161 -22 32 -25 48 -25 118 0 74 3 85 28 119 82 107 248 135 430 71 40 -14 76 -26 81 -27 10 -3 61 140 53 148 -3 3 -38 17 -78 31 -63 22 -95 27 -209 30 -97 2 -150 -1 -187 -12z"/>
<path d="M9965 9242 c-130 -39 -224 -115 -273 -220 -24 -50 -27 -69 -27 -157 0 -91 3 -105 30 -158 54 -108 157 -179 405 -281 82 -34 152 -85 186 -136 54 -81 42 -216 -27 -295 -90 -102 -331 -113 -518 -25 -35 17 -65 29 -66 28 -2 -2 -13 -36 -25 -77 -26 -90 -27 -88 92 -126 323 -102 630 -13 736 213 24 51 27 69 27 167 0 104 -2 114 -33 177 -54 110 -136 170 -369 268 -184 78 -253 149 -253 262 1 136 90 212 268 228 48 4 71 8 51 9 -39 1 -49 13 -49 59 0 62 9 72 60 72 l48 0 4 -70 c2 -42 -1 -70 -7 -71 -10 -1 104 -39 117 -39 4 0 -1 15 -12 33 -22 35 -27 111 -9 123 27 17 -34 28 -161 31 -107 2 -147 -1 -195 -15z"/>
<path d="M8420 9235 c0 -3 23 -47 51 -97 28 -51 64 -115 79 -143 15 -27 95 -174 179 -326 l151 -275 0 -313 0 -312 93 3 92 3 5 320 5 320 121 205 c130 221 315 535 345 588 l18 32 -107 0 -107 -1 -103 -197 c-57 -108 -138 -267 -180 -353 l-77 -155 -176 350 -176 351 -107 3 c-58 1 -106 0 -106 -3z"/>
<path d="M10611 9163 l-1 -83 220 0 220 0 2 -652 3 -653 90 0 90 0 3 653 2 652 225 0 225 0 0 80 0 80 -522 -1 c-288 -1 -509 -4 -493 -8 33 -7 53 -48 54 -108 1 -32 0 -33 -43 -33 -40 0 -44 2 -41 20 2 11 -5 46 -15 78 l-19 57 0 -82z"/>
<path d="M11860 8506 l0 -733 408 1 407 1 3 78 3 77 -321 0 -320 0 0 265 0 265 285 0 285 0 0 80 0 80 -285 0 -285 0 0 230 0 230 303 2 302 3 0 75 0 75 -392 3 -393 2 0 -734z"/>
<path d="M12987 9183 c-4 -32 -12 -142 -18 -246 l-12 -188 31 -32 c44 -46 50 -80 18 -111 -14 -15 -30 -26 -36 -26 -17 0 -11 25 10 38 26 16 26 54 0 77 -11 10 -22 16 -24 14 -4 -5 -57 -762 -59 -859 l-2 -75 83 -3 c61 -3 83 0 86 10 5 15 44 636 54 867 6 131 5 159 -9 189 -14 29 -15 41 -5 61 11 25 11 25 17 -14 4 -26 7 -3 8 63 0 66 5 101 11 97 6 -3 10 -14 10 -24 0 -10 7 -41 15 -67 8 -27 19 -68 25 -92 l11 -42 24 27 c13 16 27 25 31 20 4 -4 -6 -21 -22 -38 l-29 -30 170 -507 171 -507 72 -3 c39 -2 72 -1 72 1 0 3 66 184 146 403 81 220 181 504 224 633 l77 234 7 -204 c9 -267 54 -1058 60 -1068 7 -11 148 -13 165 -2 11 7 11 48 -3 267 -9 143 -28 441 -41 664 -13 223 -27 433 -30 468 l-7 62 -113 0 c-78 0 -116 -4 -123 -12 -9 -12 -130 -338 -269 -723 -36 -99 -84 -247 -108 -330 -24 -82 -46 -143 -48 -135 -3 8 -13 47 -23 85 -33 133 -143 466 -254 772 -10 29 -14 31 -36 22 -42 -15 -94 28 -94 78 0 26 39 66 57 59 7 -3 13 -2 13 3 0 7 -40 128 -55 164 -6 15 -22 17 -125 17 l-117 0 -6 -57z"/>
<path d="M2426 7908 c-44 -5 -85 -16 -92 -23 -16 -16 21 -170 92 -375 97 -286 240 -578 372 -763 l34 -47 -26 -56 c-74 -155 -74 -289 -1 -443 60 -126 188 -229 325 -260 109 -25 261 -6 348 45 l42 25 103 -64 c152 -96 253 -148 270 -142 8 4 18 2 22 -4 4 -7 -1 -9 -12 -5 -23 7 90 -54 136 -73 l35 -15 -37 37 c-37 37 -42 50 -31 79 11 29 34 19 28 -12 -5 -23 0 -34 25 -58 17 -16 31 -35 31 -41 0 -15 33 -29 214 -92 171 -59 426 -126 436 -114 5 4 10 59 12 121 l3 114 -115 29 c-124 32 -277 82 -396 129 -41 17 -76 30 -79 30 -2 0 -1 -16 2 -36 5 -29 3 -36 -8 -32 -8 2 -15 14 -17 26 -4 25 -17 29 -25 8 -9 -24 4 -53 28 -64 21 -10 29 -7 59 23 20 19 38 30 41 25 9 -15 -4 -34 -40 -59 -31 -21 -38 -22 -64 -11 -35 14 -57 46 -55 77 2 29 24 55 41 49 7 -3 13 -3 13 -1 0 3 -48 29 -107 59 -104 52 -207 110 -304 170 l-46 29 18 42 c89 201 8 468 -182 594 -125 83 -292 105 -434 56 l-70 -24 -17 22 c-38 48 -141 229 -207 367 -81 169 -148 350 -198 537 -42 152 -23 138 -167 121z"/>
<path d="M10150 7330 c-187 -30 -305 -140 -340 -318 -24 -118 6 -256 74 -345 35 -46 118 -101 181 -119 64 -19 229 -16 313 6 l72 18 0 189 0 189 -130 0 -130 0 0 -40 0 -40 80 0 80 0 0 -119 0 -119 -27 -6 c-150 -28 -252 -5 -330 73 -62 62 -78 110 -78 236 0 105 2 113 31 165 37 66 97 114 166 135 64 19 190 19 243 0 22 -8 41 -15 42 -15 6 0 23 71 19 79 -16 25 -181 44 -266 31z"/>
<path d="M13131 7321 c-29 -11 -60 -26 -70 -33 -35 -26 -101 -93 -101 -102 0 -6 21 10 48 34 l47 45 -44 -47 c-24 -26 -49 -46 -54 -45 -5 1 -22 -25 -36 -58 -23 -54 -26 -72 -26 -190 0 -128 1 -132 33 -198 39 -78 86 -128 157 -166 45 -23 61 -26 155 -26 86 0 113 4 151 21 153 71 232 241 208 453 -16 140 -88 249 -198 299 -77 35 -194 41 -270 13z m204 -80 c109 -50 174 -184 162 -336 -13 -179 -112 -295 -250 -295 -67 0 -145 37 -183 87 -105 138 -91 386 29 501 63 61 165 79 242 43z"/>
<path d="M7480 6935 l0 -395 50 0 50 0 0 395 0 395 -50 0 -50 0 0 -395z"/>
<path d="M7800 6935 l0 -395 46 0 45 0 -3 330 c-2 182 -2 330 -1 330 0 0 22 -39 48 -87 26 -49 116 -197 199 -330 l151 -243 53 0 52 0 0 395 0 395 -51 0 -52 0 6 -307 c3 -170 9 -316 12 -325 4 -10 3 -18 -1 -17 -5 0 -24 32 -43 71 -19 38 -81 143 -137 231 -56 89 -128 204 -160 255 l-58 92 -53 0 -53 0 0 -395z"/>
<path d="M8520 7285 c0 -25 3 -44 8 -44 4 1 58 1 120 0 l112 -1 0 -350 0 -350 50 0 50 0 0 350 0 350 120 0 120 0 0 45 0 45 -290 0 -290 0 0 -45z"/>
<path d="M9230 6935 l0 -395 220 0 220 0 0 40 0 40 -170 0 -170 0 0 145 0 145 155 0 155 0 0 40 0 40 -155 0 -155 0 0 128 0 127 162 0 163 0 0 40 0 40 -212 3 -213 2 0 -395z"/>
<path d="M10670 7324 l-25 -5 2 -361 c1 -289 4 -362 15 -369 10 -7 9 -9 -4 -9 -11 0 -15 -6 -11 -20 5 -18 12 -21 52 -18 l46 3 0 168 0 167 73 0 c45 0 84 -6 102 -15 30 -15 80 -89 80 -118 0 -28 66 -39 82 -14 5 7 8 3 8 -10 0 -28 -42 -42 -67 -22 -15 13 -15 11 -9 -23 4 -20 13 -59 22 -87 l15 -51 55 0 c49 0 54 2 45 18 -5 9 -19 55 -30 102 -37 145 -40 154 -61 188 -11 18 -34 41 -50 51 l-31 18 29 12 c16 7 43 27 60 44 101 104 76 262 -53 330 -35 19 -58 22 -180 23 -77 1 -151 0 -165 -2z m288 -92 c99 -51 94 -197 -8 -249 -35 -18 -61 -23 -125 -23 l-80 0 0 145 0 144 25 5 c48 8 153 -4 188 -22z"/>
<path d="M11476 7168 c-31 -90 -91 -268 -135 -395 l-79 -233 52 0 52 0 40 125 39 125 141 0 141 0 16 -42 c9 -24 28 -80 44 -125 l27 -83 54 0 c39 0 53 3 49 13 -2 6 -33 95 -68 197 -34 102 -93 273 -130 380 l-67 195 -60 3 -59 3 -57 -163z m124 43 c0 -10 24 -91 54 -180 l55 -161 -121 0 c-110 0 -120 1 -113 18 19 44 94 283 100 315 7 37 25 42 25 8z"/>
<path d="M11900 7285 l0 -45 120 0 120 0 0 -350 0 -350 50 0 50 0 0 350 0 350 120 0 120 0 0 45 0 45 -290 0 -290 0 0 -45z"/>
<path d="M12610 6935 l0 -395 50 0 50 0 0 395 0 395 -50 0 -50 0 0 -395z"/>
<path d="M13780 6935 l0 -395 48 0 47 0 -5 330 c-3 182 -3 330 0 330 3 0 18 -26 34 -57 26 -55 113 -204 144 -248 7 -11 59 -94 116 -185 l102 -165 43 -3 c29 -2 47 1 52 10 5 7 9 185 9 396 l0 382 -46 0 -45 0 3 -325 c2 -179 2 -325 1 -325 -1 0 -23 39 -48 88 -25 48 -112 193 -194 322 l-149 235 -56 3 -56 3 0 -396z"/>
</g>
</svg>